<svg width="21" height="18" viewBox="0 0 21 18" fill="none" xmlns="http://www.w3.org/2000/svg">
<path d="M10.5 1.66217C5.80683 1.66217 1.6014 4.64823 0.0350939 9.09284C-0.011698 9.22645 -0.011698 9.37062 0.0350939 9.50423C1.6014 13.9488 5.80683 16.9349 10.5 16.9349C15.1932 16.9349 19.3986 13.9488 20.9649 9.50423C21.0117 9.37062 21.0117 9.22645 20.9649 9.09284C19.3986 4.64823 15.1931 1.66217 10.5 1.66217ZM10.5 15.6622C6.4407 15.6622 2.79215 13.1136 1.35209 9.29853C2.79215 5.48346 6.44066 2.93491 10.5 2.93491C14.5593 2.93491 18.2078 5.48346 19.6479 9.29853C18.2078 13.1136 14.5593 15.6622 10.5 15.6622Z" fill="#0054FD"/>
<path d="M10.5079 5.48053C8.33659 5.48053 6.57031 7.19326 6.57031 9.29872C6.57031 11.4042 8.33659 13.1169 10.5079 13.1169C12.6792 13.1169 14.4455 11.4042 14.4455 9.29872C14.4455 7.19322 12.6792 5.48053 10.5079 5.48053ZM10.5079 11.8442C9.06012 11.8442 7.88285 10.7026 7.88285 9.29872C7.88285 7.89485 9.06015 6.75327 10.5079 6.75327C11.9557 6.75327 13.1329 7.89488 13.1329 9.29872C13.1329 10.7026 11.9556 11.8442 10.5079 11.8442Z" fill="#0054FD"/>
</svg>
